<svg xmlns="http://www.w3.org/2000/svg" xmlns:xlink="http://www.w3.org/1999/xlink" viewBox="0 0 159 84" fill-rule="evenodd" stroke-linejoin="round" stroke-miterlimit="2"><g fill="#d41308"><g fill-rule="nonzero"><path d="M61.918 66.476c1.616 0 2.542-.963 2.542-2.543 0-.781-.218-1.362-.708-1.798-.49-.454-.763-.617-1.435-.963-.726-.363-1.035-.527-1.38-.981-.163-.236-.254-.508-.254-.799 0-.799.49-1.235 1.162-1.235.781 0 1.162.436 1.162 1.326v.218h1.289v-.182c0-1.58-.963-2.542-2.47-2.542-1.544 0-2.47.926-2.47 2.433 0 .799.218 1.398.726 1.852a5.04 5.04 0 0 0 .636.508c.164.109.436.254.799.454.672.345 1.017.527 1.326.981a1.23 1.23 0 0 1 .254.745c0 .89-.418 1.326-1.253 1.326s-1.253-.472-1.253-1.398v-.345h-1.326v.309c0 1.653.981 2.633 2.651 2.633zm6.665 0c1.725 0 2.688-1.072 2.688-2.96V59.92c0-1.889-.962-2.942-2.688-2.942-1.743 0-2.688 1.053-2.688 2.942v3.596c0 1.889.944 2.96 2.688 2.96zm0-1.217c-.89 0-1.326-.545-1.326-1.616v-3.85c0-1.072.436-1.598 1.326-1.598.872 0 1.308.527 1.308 1.598v3.85c0 1.071-.436 1.616-1.308 1.616zm6.992 1.217c1.725 0 2.615-1.053 2.615-2.924v-.581h-1.326v.708c0 1.053-.436 1.58-1.289 1.58s-1.289-.527-1.289-1.58v-3.923c0-1.035.436-1.562 1.289-1.562s1.289.527 1.289 1.562v.527h1.326v-.4c0-1.834-.89-2.906-2.615-2.906-1.743 0-2.67 1.017-2.67 2.906v3.668c0 1.889.926 2.924 2.67 2.924z"/><use xlink:href="#B"/><path d="M88.415 66.294c-.127-.563-.2-1.38-.2-2.488v-4.068c0-1.834-.835-2.76-2.524-2.76-1.653 0-2.579.962-2.579 2.651v.2h1.289v-.272c0-.89.472-1.398 1.271-1.398.781 0 1.18.454 1.18 1.362v.218c0 .309-.091.563-.29.726s-.672.418-1.435.763c-1.653.781-2.27 1.598-2.27 2.997 0 1.38.781 2.252 2.034 2.252 1.035 0 1.743-.472 2.125-1.417.036.636.091 1.035.145 1.235h1.253zm-3.051-1.017c-.745 0-1.126-.418-1.126-1.253 0-.763.436-1.362 1.289-1.798.745-.381 1.181-.654 1.326-.853v1.834c0 1.307-.563 2.07-1.489 2.07zm4.83-11.696h1.362v12.712h-1.362z"/><use xlink:href="#B" x="13.693"/><path d="M99.22 66.476c1.616 0 2.542-.963 2.542-2.543 0-.781-.218-1.362-.708-1.798-.49-.454-.763-.617-1.435-.963-.726-.363-1.035-.527-1.38-.981a1.39 1.39 0 0 1-.254-.799c0-.799.49-1.235 1.162-1.235.781 0 1.162.436 1.162 1.326v.218h1.289v-.182c0-1.58-.963-2.542-2.47-2.542-1.544 0-2.47.926-2.47 2.433 0 .799.218 1.398.726 1.852a5.1 5.1 0 0 0 .636.508c.163.109.436.254.799.454.672.345 1.017.527 1.326.981a1.23 1.23 0 0 1 .254.745c0 .89-.418 1.326-1.253 1.326s-1.253-.472-1.253-1.398v-.345h-1.326v.309c0 1.653.981 2.633 2.651 2.633zm7.646-9.317h-1.653v-2.633h-1.181l-.145 2.633h-1.181v1.162h1.126v6.066c0 1.398.672 2.089 2.016 2.089.399 0 .745-.055 1.017-.182v-1.18a2.11 2.11 0 0 1-.763.145c-.654 0-.89-.29-.89-1.017v-5.92h1.653V57.16z"/><use xlink:href="#B" x="28.494"/><path d="M114.021 66.476c1.616 0 2.542-.963 2.542-2.543 0-.781-.218-1.362-.708-1.798-.49-.454-.763-.617-1.435-.963-.726-.363-1.035-.527-1.38-.981-.163-.236-.254-.508-.254-.799 0-.799.49-1.235 1.162-1.235.781 0 1.162.436 1.162 1.326v.218h1.289v-.182c0-1.58-.963-2.542-2.47-2.542-1.544 0-2.47.926-2.47 2.433 0 .799.218 1.398.726 1.852a5.1 5.1 0 0 0 .636.508c.163.109.436.254.799.454.672.345 1.017.527 1.326.981a1.23 1.23 0 0 1 .254.745c0 .89-.418 1.326-1.253 1.326s-1.253-.472-1.253-1.398v-.345h-1.326v.309c0 1.653.981 2.633 2.651 2.633zm6.647 0c1.725 0 2.615-1.053 2.615-2.924v-.581h-1.326v.708c0 1.053-.436 1.58-1.289 1.58s-1.29-.527-1.29-1.58v-3.923c0-1.035.436-1.562 1.29-1.562s1.289.527 1.289 1.562v.527h1.326v-.4c0-1.834-.89-2.906-2.615-2.906-1.743 0-2.67 1.017-2.67 2.906v3.668c0 1.889.926 2.924 2.67 2.924zm7.519-9.498a2.01 2.01 0 0 0-1.852 1.053v-4.45h-1.362v12.713h1.362v-6.066c0-1.307.581-2.034 1.435-2.034.763 0 1.144.527 1.144 1.598v6.502h1.38v-6.683c0-1.762-.708-2.633-2.107-2.633zm6.574 0c-1.762 0-2.706 1.053-2.706 2.942v3.596c0 1.889.963 2.96 2.706 2.96s2.706-1.072 2.706-2.96v-.145h-1.326v.272c0 1.071-.454 1.616-1.362 1.616-.89 0-1.344-.545-1.344-1.616v-1.707h4.032V59.92c0-1.889-.963-2.942-2.706-2.942zm-1.326 2.815c0-1.072.436-1.598 1.326-1.598.908 0 1.362.527 1.362 1.598v1.017h-2.688v-1.017zM61.01 70.562V68.6h-1.362v1.961h1.362zm-1.689 13.439c1.126 0 1.689-.599 1.689-1.798V71.869h-1.362v10.225c0 .508-.163.69-.581.69-.182 0-.381-.036-.617-.127v1.162c.236.127.527.182.872.182zm6.211-2.815c1.725 0 2.688-1.071 2.688-2.96V74.63c0-1.889-.963-2.942-2.688-2.942-1.743 0-2.688 1.053-2.688 2.942v3.596c0 1.889.944 2.96 2.688 2.96zm0-1.217c-.89 0-1.326-.545-1.326-1.616v-3.85c0-1.072.436-1.598 1.326-1.598.872 0 1.307.527 1.307 1.598v3.85c0 1.071-.436 1.616-1.307 1.616zm7.718-8.281c-.963 0-1.634.454-2.016 1.38l-.018-1.199h-1.18v9.135h1.362v-6.066c0-1.308.581-2.034 1.435-2.034.763 0 1.144.527 1.144 1.598v6.502h1.38v-6.683c0-1.762-.708-2.633-2.107-2.633zm8.046 1.398c-.381-.926-1.053-1.398-2.034-1.398-1.416 0-2.125.872-2.125 2.633v3.814c0 1.762.708 2.651 2.125 2.651.817 0 1.453-.363 1.871-1.09v1.671c0 .999-.436 1.489-1.326 1.489-.854 0-1.289-.381-1.289-1.144v-.127H77.21v.072c0 1.526.89 2.343 2.615 2.343 1.889 0 2.67-.926 2.67-2.724v-9.407h-1.18l-.018 1.217zm-1.616 6.483c-.781 0-1.18-.508-1.18-1.544V74.43c0-1.017.399-1.525 1.18-1.525.854 0 1.453.726 1.453 2.034v2.597c0 1.307-.599 2.034-1.453 2.034zm7.354-7.881c-1.762 0-2.706 1.053-2.706 2.942v3.596c0 1.889.963 2.96 2.706 2.96s2.706-1.071 2.706-2.96v-.145h-1.326v.272c0 1.071-.454 1.616-1.362 1.616-.89 0-1.344-.545-1.344-1.616v-1.707h4.032V74.63c0-1.889-.962-2.942-2.706-2.942zm-1.326 2.815c0-1.072.436-1.598 1.326-1.598.908 0 1.362.527 1.362 1.598v1.017h-2.688v-1.017zm8.899-2.815c-.962 0-1.598.563-1.907 1.689l-.018-1.507h-1.18v9.135h1.362v-5.321c0-1.762.599-2.633 1.78-2.633a1.74 1.74 0 0 1 .563.091v-1.344c-.145-.073-.345-.109-.599-.109zm4.395 0c-1.762 0-2.706 1.053-2.706 2.942v3.596c0 1.889.962 2.96 2.706 2.96s2.706-1.071 2.706-2.96v-.145h-1.326v.272c0 1.071-.454 1.616-1.362 1.616-.89 0-1.344-.545-1.344-1.616v-1.707h4.032V74.63c0-1.889-.963-2.942-2.706-2.942zm-1.326 2.815c0-1.072.436-1.598 1.326-1.598.908 0 1.362.527 1.362 1.598v1.017h-2.688v-1.017zm9.008-2.815c-.962 0-1.634.454-2.016 1.38l-.018-1.199h-1.18v9.135h1.362v-6.066c0-1.308.581-2.034 1.435-2.034.763 0 1.144.527 1.144 1.598v6.502h1.38v-6.683c0-1.762-.708-2.633-2.107-2.633zM66.42 49.045V32.572h2.45c3.361 0 4.501 1.307 4.501 4.999v6.249c0 2.329.228 4.09.627 5.226h7.235c-.513-1.25-.798-2.954-.798-5.169v-5.851c0-5.056-1.538-8.066-4.671-8.975v-.17c3.076-1.193 4.614-3.863 4.614-8.01v-1.988c0-6.533-3.304-9.6-10.539-9.6H59.298v39.763h7.121zm0-33.458h3.304c2.336 0 3.532 1.363 3.532 4.033v2.329c0 3.011-1.31 4.317-4.216 4.317h-2.62V15.587z"/><use xlink:href="#C"/><use xlink:href="#C" x="25.978"/><path d="M148.397 49.045c7.007 0 10.596-3.692 10.596-10.566V19.791c0-6.817-3.589-10.509-10.596-10.509h-10.881v39.763h10.881zm-3.76-33.458h3.646c2.45 0 3.589 1.136 3.589 4.033v19.087c0 2.897-1.139 4.033-3.589 4.033h-3.646V15.587z"/></g><path d="M59.257 5.437l-5.05-.916L51.775 0l-2.432 4.521-5.05.916 3.547 3.71-.689 5.087 4.624-2.228 4.624 2.228-.689-5.087 3.547-3.71z"/></g><path d="M3.161 49.467V34.21l2.698 15.258h3.046l2.698-15.258v15.258h3.423V29.163H9.92L7.512 43.608 5.105 29.163H-.001v20.305h3.162zM17.81 29.163h3.626v20.305H17.81zm7.106 20.449c3.684 0 5.366-1.682 5.366-5.366V29.163h-3.626v15.2c0 1.392-.667 2.001-2.176 2.001a5.08 5.08 0 0 1-1.16-.116v3.249c.464.087.986.116 1.595.116zm11.255-.145V34.819l4.467 14.648h3.655V29.163h-3.249v11.951l-3.626-11.951h-4.496v20.305h3.249z" fill-rule="nonzero"/><defs ><path id="B" d="M81.241 55.852V53.89h-1.362v1.961h1.362zm0 10.442v-9.135h-1.362v9.135h1.362z"/><path id="C" d="M95.815 49.613c7.007 0 10.824-3.92 10.824-10.736V19.45c0-6.816-3.817-10.736-10.824-10.736-6.893 0-10.767 3.92-10.767 10.736v19.427c0 6.816 3.874 10.736 10.767 10.736zm0-6.305c-2.45 0-3.646-1.363-3.646-4.09V19.109c0-2.727 1.196-4.09 3.646-4.09s3.703 1.363 3.703 4.09v20.109c0 2.727-1.253 4.09-3.703 4.09z"/></defs></svg>