<?xml version="1.0" encoding="UTF-8" standalone="no"?>
<!DOCTYPE svg PUBLIC "-//W3C//DTD SVG 1.1//EN" "http://www.w3.org/Graphics/SVG/1.1/DTD/svg11.dtd">
<svg width="100%" height="100%" viewBox="0 0 388 284" version="1.1" xmlns="http://www.w3.org/2000/svg" xmlns:xlink="http://www.w3.org/1999/xlink" xml:space="preserve" xmlns:serif="http://www.serif.com/" style="fill-rule:evenodd;clip-rule:evenodd;stroke-linejoin:round;stroke-miterlimit:2;">
    <g transform="matrix(1,0,0,1,-67.3968,-4.61853e-14)">
        <g transform="matrix(0.566078,0,0,0.566078,-75.0338,-199.86)">
            <path d="M356.874,750.088C366.528,750.088 372.059,744.339 372.059,734.902C372.059,730.238 370.758,726.767 367.829,724.164C364.901,721.452 363.274,720.476 359.26,718.415C354.922,716.246 353.078,715.27 351.017,712.558C350.041,711.148 349.498,709.521 349.498,707.786C349.498,703.013 352.427,700.41 356.44,700.41C361.104,700.41 363.382,703.013 363.382,708.328L363.382,709.63L371.083,709.63L371.083,708.545C371.083,699.108 365.334,693.36 356.332,693.36C347.112,693.36 341.58,698.891 341.58,707.894C341.58,712.667 342.882,716.246 345.919,718.958C347.438,720.368 348.739,721.344 349.715,721.995C350.691,722.646 352.318,723.513 354.488,724.706C358.501,726.767 360.562,727.852 362.406,730.564C363.382,731.865 363.924,733.384 363.924,735.011C363.924,740.326 361.43,742.929 356.44,742.929C351.451,742.929 348.956,740.109 348.956,734.577L348.956,732.516L341.038,732.516L341.038,734.36C341.038,744.23 346.895,750.088 356.874,750.088Z" style="fill:rgb(212,19,8);fill-rule:nonzero;"/>
            <path d="M396.681,750.088C406.986,750.088 412.734,743.688 412.734,732.408L412.734,710.931C412.734,699.651 406.986,693.36 396.681,693.36C386.268,693.36 380.628,699.651 380.628,710.931L380.628,732.408C380.628,743.688 386.268,750.088 396.681,750.088ZM396.681,742.82C391.366,742.82 388.763,739.566 388.763,733.167L388.763,710.172C388.763,703.772 391.366,700.627 396.681,700.627C401.888,700.627 404.491,703.772 404.491,710.172L404.491,733.167C404.491,739.566 401.888,742.82 396.681,742.82Z" style="fill:rgb(212,19,8);fill-rule:nonzero;"/>
            <path d="M438.441,750.088C448.745,750.088 454.06,743.797 454.06,732.624L454.06,729.154L446.142,729.154L446.142,733.384C446.142,739.675 443.539,742.82 438.441,742.82C433.343,742.82 430.74,739.675 430.74,733.384L430.74,709.955C430.74,703.772 433.343,700.627 438.441,700.627C443.539,700.627 446.142,703.772 446.142,709.955L446.142,713.101L454.06,713.101L454.06,710.714C454.06,699.759 448.745,693.36 438.441,693.36C428.028,693.36 422.496,699.434 422.496,710.714L422.496,732.624C422.496,743.905 428.028,750.088 438.441,750.088Z" style="fill:rgb(212,19,8);fill-rule:nonzero;"/>
            <path d="M472.282,686.635L472.282,674.92L464.147,674.92L464.147,686.635L472.282,686.635ZM472.282,749.003L472.282,694.444L464.147,694.444L464.147,749.003L472.282,749.003Z" style="fill:rgb(212,19,8);fill-rule:nonzero;"/>
            <path d="M515.126,749.003C514.367,745.64 513.933,740.759 513.933,734.143L513.933,709.847C513.933,698.891 508.944,693.36 498.856,693.36C488.986,693.36 483.454,699.108 483.454,709.196L483.454,710.389L491.155,710.389L491.155,708.762C491.155,703.447 493.975,700.41 498.748,700.41C503.412,700.41 505.798,703.122 505.798,708.545L505.798,709.847C505.798,711.69 505.256,713.209 504.063,714.185C502.87,715.161 500.05,716.68 495.494,718.741C485.624,723.405 481.936,728.286 481.936,736.638C481.936,744.881 486.6,750.088 494.084,750.088C500.267,750.088 504.497,747.267 506.774,741.627C506.991,745.424 507.317,747.81 507.642,749.003L515.126,749.003ZM496.904,742.929C492.457,742.929 490.179,740.434 490.179,735.445C490.179,730.889 492.782,727.31 497.88,724.706C502.327,722.429 504.931,720.802 505.798,719.609L505.798,730.564C505.798,738.373 502.436,742.929 496.904,742.929Z" style="fill:rgb(212,19,8);fill-rule:nonzero;"/>
            <rect x="525.756" y="673.076" width="8.135" height="75.926" style="fill:rgb(212,19,8);fill-rule:nonzero;"/>
            <path d="M554.066,686.635L554.066,674.92L545.931,674.92L545.931,686.635L554.066,686.635ZM554.066,749.003L554.066,694.444L545.931,694.444L545.931,749.003L554.066,749.003Z" style="fill:rgb(212,19,8);fill-rule:nonzero;"/>
            <path d="M579.664,750.088C589.317,750.088 594.849,744.339 594.849,734.902C594.849,730.238 593.548,726.767 590.619,724.164C587.69,721.452 586.063,720.476 582.05,718.415C577.711,716.246 575.868,715.27 573.807,712.558C572.83,711.148 572.288,709.521 572.288,707.786C572.288,703.013 575.217,700.41 579.23,700.41C583.894,700.41 586.172,703.013 586.172,708.328L586.172,709.63L593.873,709.63L593.873,708.545C593.873,699.108 588.124,693.36 579.122,693.36C569.902,693.36 564.37,698.891 564.37,707.894C564.37,712.667 565.672,716.246 568.709,718.958C570.227,720.368 571.529,721.344 572.505,721.995C573.481,722.646 575.108,723.513 577.278,724.706C581.291,726.767 583.352,727.852 585.196,730.564C586.172,731.865 586.714,733.384 586.714,735.011C586.714,740.326 584.219,742.929 579.23,742.929C574.241,742.929 571.746,740.109 571.746,734.577L571.746,732.516L563.828,732.516L563.828,734.36C563.828,744.23 569.685,750.088 579.664,750.088Z" style="fill:rgb(212,19,8);fill-rule:nonzero;"/>
            <path d="M625.328,694.444L615.458,694.444L615.458,678.717L608.407,678.717L607.54,694.444L600.489,694.444L600.489,701.386L607.214,701.386L607.214,737.614C607.214,745.966 611.228,750.088 619.254,750.088C621.64,750.088 623.701,749.762 625.328,749.003L625.328,741.953C623.918,742.495 622.4,742.82 620.773,742.82C616.868,742.82 615.458,741.085 615.458,736.746L615.458,701.386L625.328,701.386L625.328,694.444Z" style="fill:rgb(212,19,8);fill-rule:nonzero;"/>
            <path d="M642.466,686.635L642.466,674.92L634.331,674.92L634.331,686.635L642.466,686.635ZM642.466,749.003L642.466,694.444L634.331,694.444L634.331,749.003L642.466,749.003Z" style="fill:rgb(212,19,8);fill-rule:nonzero;"/>
            <path d="M668.064,750.088C677.717,750.088 683.249,744.339 683.249,734.902C683.249,730.238 681.948,726.767 679.019,724.164C676.09,721.452 674.463,720.476 670.45,718.415C666.111,716.246 664.268,715.27 662.207,712.558C661.231,711.148 660.688,709.521 660.688,707.786C660.688,703.013 663.617,700.41 667.63,700.41C672.294,700.41 674.572,703.013 674.572,708.328L674.572,709.63L682.273,709.63L682.273,708.545C682.273,699.108 676.524,693.36 667.522,693.36C658.302,693.36 652.77,698.891 652.77,707.894C652.77,712.667 654.072,716.246 657.109,718.958C658.627,720.368 659.929,721.344 660.905,721.995C661.881,722.646 663.508,723.513 665.678,724.706C669.691,726.767 671.752,727.852 673.596,730.564C674.572,731.865 675.114,733.384 675.114,735.011C675.114,740.326 672.619,742.929 667.63,742.929C662.641,742.929 660.146,740.109 660.146,734.577L660.146,732.516L652.228,732.516L652.228,734.36C652.228,744.23 658.085,750.088 668.064,750.088Z" style="fill:rgb(212,19,8);fill-rule:nonzero;"/>
            <path d="M707.763,750.088C718.067,750.088 723.382,743.797 723.382,732.624L723.382,729.154L715.464,729.154L715.464,733.384C715.464,739.675 712.86,742.82 707.763,742.82C702.665,742.82 700.061,739.675 700.061,733.384L700.061,709.955C700.061,703.772 702.665,700.627 707.763,700.627C712.86,700.627 715.464,703.772 715.464,709.955L715.464,713.101L723.382,713.101L723.382,710.714C723.382,699.759 718.067,693.36 707.763,693.36C697.35,693.36 691.818,699.434 691.818,710.714L691.818,732.624C691.818,743.905 697.35,750.088 707.763,750.088Z" style="fill:rgb(212,19,8);fill-rule:nonzero;"/>
            <path d="M752.668,693.36C747.787,693.36 744.099,695.421 741.604,699.651L741.604,673.076L733.469,673.076L733.469,749.003L741.604,749.003L741.604,712.775C741.604,704.966 745.075,700.627 750.173,700.627C754.728,700.627 757.006,703.772 757.006,710.172L757.006,749.003L765.25,749.003L765.25,709.087C765.25,698.566 761.02,693.36 752.668,693.36Z" style="fill:rgb(212,19,8);fill-rule:nonzero;"/>
            <path d="M791.932,693.36C781.411,693.36 775.771,699.651 775.771,710.931L775.771,732.408C775.771,743.688 781.52,750.088 791.932,750.088C802.345,750.088 808.094,743.688 808.094,732.408L808.094,731.54L800.176,731.54L800.176,733.167C800.176,739.566 797.464,742.82 792.041,742.82C786.726,742.82 784.014,739.566 784.014,733.167L784.014,722.971L808.094,722.971L808.094,710.931C808.094,699.651 802.345,693.36 791.932,693.36ZM784.014,710.172C784.014,703.772 786.618,700.627 791.932,700.627C797.356,700.627 800.067,703.772 800.067,710.172L800.067,716.246L784.014,716.246L784.014,710.172Z" style="fill:rgb(212,19,8);fill-rule:nonzero;"/>
            <path d="M351.451,774.492L351.451,762.778L343.316,762.778L343.316,774.492L351.451,774.492ZM341.363,854.758C348.088,854.758 351.451,851.178 351.451,844.019L351.451,782.302L343.316,782.302L343.316,843.369C343.316,846.406 342.34,847.49 339.845,847.49C338.76,847.49 337.567,847.273 336.157,846.731L336.157,853.673C337.567,854.432 339.303,854.758 341.363,854.758Z" style="fill:rgb(212,19,8);fill-rule:nonzero;"/>
            <path d="M378.459,837.945C388.763,837.945 394.512,831.546 394.512,820.265L394.512,798.789C394.512,787.508 388.763,781.217 378.459,781.217C368.046,781.217 362.406,787.508 362.406,798.789L362.406,820.265C362.406,831.546 368.046,837.945 378.459,837.945ZM378.459,830.678C373.144,830.678 370.541,827.424 370.541,821.025L370.541,798.03C370.541,791.63 373.144,788.485 378.459,788.485C383.665,788.485 386.268,791.63 386.268,798.03L386.268,821.025C386.268,827.424 383.665,830.678 378.459,830.678Z" style="fill:rgb(212,19,8);fill-rule:nonzero;"/>
            <path d="M424.557,781.217C418.808,781.217 414.795,783.929 412.517,789.461L412.409,782.302L405.359,782.302L405.359,836.861L413.493,836.861L413.493,800.633C413.493,792.823 416.964,788.485 422.062,788.485C426.618,788.485 428.896,791.63 428.896,798.03L428.896,836.861L437.139,836.861L437.139,796.945C437.139,786.424 432.909,781.217 424.557,781.217Z" style="fill:rgb(212,19,8);fill-rule:nonzero;"/>
            <path d="M472.608,789.569C470.33,784.038 466.317,781.217 460.459,781.217C451.999,781.217 447.769,786.424 447.769,796.945L447.769,819.723C447.769,830.244 451.999,835.559 460.459,835.559C465.34,835.559 469.137,833.39 471.631,829.051L471.631,839.03C471.631,844.996 469.028,847.924 463.713,847.924C458.615,847.924 456.012,845.646 456.012,841.091L456.012,840.332L448.203,840.332L448.203,840.765C448.203,849.877 453.518,854.758 463.822,854.758C475.102,854.758 479.766,849.226 479.766,838.488L479.766,782.302L472.716,782.302L472.608,789.569ZM462.954,828.292C458.29,828.292 455.904,825.255 455.904,819.072L455.904,797.596C455.904,791.522 458.29,788.485 462.954,788.485C468.052,788.485 471.631,792.823 471.631,800.633L471.631,816.144C471.631,823.953 468.052,828.292 462.954,828.292Z" style="fill:rgb(212,19,8);fill-rule:nonzero;"/>
            <path d="M506.883,781.217C496.362,781.217 490.721,787.508 490.721,798.789L490.721,820.265C490.721,831.546 496.47,837.945 506.883,837.945C517.296,837.945 523.044,831.546 523.044,820.265L523.044,819.398L515.126,819.398L515.126,821.025C515.126,827.424 512.415,830.678 506.991,830.678C501.677,830.678 498.965,827.424 498.965,821.025L498.965,810.829L523.044,810.829L523.044,798.789C523.044,787.508 517.296,781.217 506.883,781.217ZM498.965,798.03C498.965,791.63 501.568,788.485 506.883,788.485C512.306,788.485 515.018,791.63 515.018,798.03L515.018,804.104L498.965,804.104L498.965,798.03Z" style="fill:rgb(212,19,8);fill-rule:nonzero;"/>
            <path d="M552.113,781.217C546.365,781.217 542.568,784.58 540.724,791.305L540.616,782.302L533.566,782.302L533.566,836.861L541.701,836.861L541.701,805.08C541.701,794.559 545.28,789.352 552.33,789.352C553.632,789.352 554.717,789.569 555.693,789.895L555.693,781.868C554.825,781.434 553.632,781.217 552.113,781.217Z" style="fill:rgb(212,19,8);fill-rule:nonzero;"/>
            <path d="M578.362,781.217C567.841,781.217 562.201,787.508 562.201,798.789L562.201,820.265C562.201,831.546 567.949,837.945 578.362,837.945C588.775,837.945 594.524,831.546 594.524,820.265L594.524,819.398L586.606,819.398L586.606,821.025C586.606,827.424 583.894,830.678 578.471,830.678C573.156,830.678 570.444,827.424 570.444,821.025L570.444,810.829L594.524,810.829L594.524,798.789C594.524,787.508 588.775,781.217 578.362,781.217ZM570.444,798.03C570.444,791.63 573.047,788.485 578.362,788.485C583.786,788.485 586.497,791.63 586.497,798.03L586.497,804.104L570.444,804.104L570.444,798.03Z" style="fill:rgb(212,19,8);fill-rule:nonzero;"/>
            <path d="M624.243,781.217C618.495,781.217 614.482,783.929 612.204,789.461L612.095,782.302L605.045,782.302L605.045,836.861L613.18,836.861L613.18,800.633C613.18,792.823 616.651,788.485 621.749,788.485C626.304,788.485 628.582,791.63 628.582,798.03L628.582,836.861L636.826,836.861L636.826,796.945C636.826,786.424 632.595,781.217 624.243,781.217Z" style="fill:rgb(212,19,8);fill-rule:nonzero;"/>
        </g>
        <g transform="matrix(0.566078,0,0,0.566078,-75.0338,-199.86)">
            <path d="M383.759,645.984L383.759,547.595L398.389,547.595C418.464,547.595 425.269,555.399 425.269,577.451L425.269,614.771C425.269,628.682 426.63,639.199 429.012,645.984L472.224,645.984C469.161,638.52 467.46,628.342 467.46,615.111L467.46,580.166C467.46,549.97 458.273,531.989 439.56,526.561L439.56,525.543C457.933,518.418 467.12,502.472 467.12,477.705L467.12,465.831C467.12,426.814 447.385,408.494 404.174,408.494L341.227,408.494L341.227,645.984L383.759,645.984ZM383.759,446.153L403.493,446.153C417.443,446.153 424.589,454.295 424.589,470.241L424.589,484.151C424.589,502.133 416.763,509.936 399.41,509.936L383.759,509.936L383.759,446.153Z" style="fill:rgb(212,19,8);fill-rule:nonzero;"/>
            <path d="M559.328,649.377C601.178,649.377 623.975,625.967 623.975,585.255L623.975,469.223C623.975,428.511 601.178,405.101 559.328,405.101C518.157,405.101 495.02,428.511 495.02,469.223L495.02,585.255C495.02,625.967 518.157,649.377 559.328,649.377ZM559.328,611.718C544.697,611.718 537.552,603.575 537.552,587.29L537.552,467.188C537.552,450.903 544.697,442.76 559.328,442.76C573.958,442.76 581.444,450.903 581.444,467.188L581.444,587.29C581.444,603.575 573.958,611.718 559.328,611.718Z" style="fill:rgb(212,19,8);fill-rule:nonzero;"/>
            <path d="M714.482,649.377C756.332,649.377 779.129,625.967 779.129,585.255L779.129,469.223C779.129,428.511 756.332,405.101 714.482,405.101C673.311,405.101 650.174,428.511 650.174,469.223L650.174,585.255C650.174,625.967 673.311,649.377 714.482,649.377ZM714.482,611.718C699.851,611.718 692.706,603.575 692.706,587.29L692.706,467.188C692.706,450.903 699.851,442.76 714.482,442.76C729.112,442.76 736.598,450.903 736.598,467.188L736.598,587.29C736.598,603.575 729.112,611.718 714.482,611.718Z" style="fill:rgb(212,19,8);fill-rule:nonzero;"/>
            <path d="M873.378,645.984C915.229,645.984 936.665,623.932 936.665,582.88L936.665,471.259C936.665,430.546 915.229,408.494 873.378,408.494L808.391,408.494L808.391,645.984L873.378,645.984ZM850.922,446.153L872.698,446.153C887.329,446.153 894.134,452.938 894.134,470.241L894.134,584.237C894.134,601.54 887.329,608.325 872.698,608.325L850.922,608.325L850.922,446.153Z" style="fill:rgb(212,19,8);fill-rule:nonzero;"/>
        </g>
        <g transform="matrix(0.566078,0,0,0.566078,117.988,29.7451)">
            <path d="M0,-20.071L-30.163,-25.542L-44.686,-52.546L-59.209,-25.542L-89.372,-20.071L-68.185,2.09L-72.303,32.475L-44.686,19.167L-17.069,32.475L-21.187,2.09L0,-20.071Z" style="fill:rgb(212,19,8);"/>
        </g>
    </g>
</svg>
