<svg xmlns="http://www.w3.org/2000/svg" xmlns:xlink="http://www.w3.org/1999/xlink" viewBox="0 0 388 284" fill-rule="evenodd" stroke-linejoin="round" stroke-miterlimit="2"><g fill="#d41308"><g fill-rule="nonzero"><path d="M59.588 224.748c5.465 0 8.596-3.254 8.596-8.596 0-2.64-.736-4.605-2.395-6.079-1.657-1.535-2.578-2.088-4.851-3.254-2.456-1.228-3.499-1.78-4.666-3.316a4.71 4.71 0 0 1-.86-2.701c0-2.702 1.658-4.175 3.93-4.175 2.64 0 3.93 1.474 3.93 4.482v.737h4.359v-.614c0-5.342-3.254-8.596-8.35-8.596-5.219 0-8.351 3.131-8.351 8.227 0 2.702.737 4.728 2.456 6.263a17.22 17.22 0 0 0 2.149 1.719c.553.368 1.474.859 2.702 1.535 2.272 1.167 3.438 1.781 4.482 3.316.552.736.859 1.596.859 2.517 0 3.009-1.412 4.482-4.237 4.482s-4.237-1.596-4.237-4.728V214.8h-4.482v1.044c0 5.587 3.316 8.903 8.964 8.903zm22.534 0c5.833 0 9.087-3.623 9.087-10.008v-12.158c0-6.385-3.254-9.947-9.087-9.947-5.895 0-9.087 3.561-9.087 9.947v12.158c0 6.385 3.193 10.008 9.087 10.008zm0-4.114c-3.009 0-4.482-1.842-4.482-5.464v-13.017c0-3.623 1.474-5.403 4.482-5.403 2.948 0 4.421 1.78 4.421 5.403v13.017c0 3.622-1.474 5.464-4.421 5.464zm23.639 4.114c5.833 0 8.842-3.561 8.842-9.886v-1.964h-4.482v2.395c0 3.561-1.474 5.342-4.359 5.342s-4.359-1.78-4.359-5.342V202.03c0-3.5 1.474-5.28 4.359-5.28s4.359 1.78 4.359 5.28v1.781h4.482v-1.351c0-6.201-3.009-9.824-8.842-9.824-5.895 0-9.026 3.438-9.026 9.824v12.403c0 6.386 3.132 9.886 9.026 9.886z"/><use xlink:href="#B"/><path d="M149.171 224.134c-.43-1.904-.675-4.667-.675-8.412v-13.753c0-6.202-2.824-9.333-8.535-9.333-5.587 0-8.719 3.254-8.719 8.964v.675h4.359v-.921c0-3.009 1.596-4.728 4.298-4.728 2.64 0 3.991 1.535 3.991 4.605v.737c0 1.043-.307 1.903-.982 2.456s-2.272 1.412-4.851 2.579c-5.587 2.64-7.675 5.403-7.675 10.131 0 4.666 2.64 7.614 6.877 7.614 3.5 0 5.895-1.597 7.184-4.79.123 2.149.307 3.5.491 4.175h4.237zm-10.315-3.438c-2.517 0-3.807-1.412-3.807-4.237 0-2.579 1.474-4.605 4.359-6.079 2.517-1.289 3.991-2.21 4.482-2.885v6.201c0 4.421-1.903 7-5.035 7zm16.332-39.542h4.605v42.98h-4.605z"/><use xlink:href="#B" x="46.296"/><path d="M185.704 224.748c5.464 0 8.596-3.254 8.596-8.596 0-2.64-.736-4.605-2.395-6.079-1.658-1.535-2.579-2.088-4.851-3.254-2.456-1.228-3.499-1.78-4.666-3.316-.553-.798-.86-1.719-.86-2.701 0-2.702 1.658-4.175 3.93-4.175 2.64 0 3.93 1.474 3.93 4.482v.737h4.359v-.614c0-5.342-3.254-8.596-8.35-8.596-5.219 0-8.351 3.131-8.351 8.227 0 2.702.737 4.728 2.456 6.263.859.798 1.596 1.351 2.149 1.719s1.474.859 2.702 1.535c2.272 1.167 3.438 1.781 4.482 3.316.552.736.859 1.596.859 2.517 0 3.009-1.412 4.482-4.237 4.482s-4.237-1.596-4.237-4.728V214.8h-4.482v1.044c0 5.587 3.316 8.903 8.964 8.903zm25.85-31.499h-5.587v-8.903h-3.991l-.491 8.903h-3.991v3.93h3.807v20.508c0 4.728 2.272 7.061 6.816 7.061 1.351 0 2.517-.185 3.438-.614v-3.991a7.13 7.13 0 0 1-2.578.491c-2.211 0-3.009-.982-3.009-3.438v-20.017h5.587v-3.93z"/><use xlink:href="#B" x="96.337"/><path d="M235.746 224.748c5.464 0 8.596-3.254 8.596-8.596 0-2.64-.736-4.605-2.395-6.079-1.658-1.535-2.579-2.088-4.851-3.254-2.456-1.228-3.499-1.78-4.666-3.316a4.71 4.71 0 0 1-.86-2.701c0-2.702 1.658-4.175 3.93-4.175 2.64 0 3.93 1.474 3.93 4.482v.737h4.359v-.614c0-5.342-3.254-8.596-8.35-8.596-5.219 0-8.351 3.131-8.351 8.227 0 2.702.737 4.728 2.456 6.263.859.798 1.596 1.351 2.149 1.719s1.474.859 2.702 1.535c2.272 1.167 3.438 1.781 4.482 3.316.552.736.859 1.596.859 2.517 0 3.009-1.412 4.482-4.237 4.482s-4.237-1.596-4.237-4.728V214.8h-4.482v1.044c0 5.587 3.316 8.903 8.964 8.903zm22.472 0c5.833 0 8.842-3.561 8.842-9.886v-1.964h-4.482v2.395c0 3.561-1.474 5.342-4.359 5.342s-4.36-1.78-4.36-5.342V202.03c0-3.5 1.474-5.28 4.36-5.28s4.359 1.78 4.359 5.28v1.781h4.482v-1.351c0-6.201-3.009-9.824-8.842-9.824-5.895 0-9.026 3.438-9.026 9.824v12.403c0 6.386 3.132 9.886 9.026 9.886zm25.42-32.112c-2.763 0-4.851 1.167-6.263 3.561v-15.044h-4.605v42.981h4.605v-20.508c0-4.421 1.965-6.877 4.851-6.877 2.578 0 3.868 1.78 3.868 5.403v21.981h4.667v-22.596c0-5.956-2.395-8.903-7.122-8.903zm22.226 0c-5.956 0-9.148 3.561-9.148 9.947v12.158c0 6.385 3.254 10.008 9.148 10.008s9.149-3.623 9.149-10.008v-.491h-4.482v.921c0 3.622-1.535 5.464-4.605 5.464-3.009 0-4.544-1.842-4.544-5.464v-5.772h13.631v-6.816c0-6.385-3.254-9.947-9.149-9.947zm-4.482 9.517c0-3.623 1.474-5.403 4.482-5.403 3.07 0 4.605 1.78 4.605 5.403v3.438h-9.087v-3.438zm-244.864 36.41v-6.631h-4.605v6.631h4.605zM50.807 284c3.807 0 5.711-2.027 5.711-6.079v-34.937h-4.605v34.569c0 1.719-.552 2.333-1.965 2.333-.614 0-1.29-.123-2.088-.43v3.93c.798.43 1.781.614 2.947.614zm21-9.518c5.833 0 9.087-3.622 9.087-10.008v-12.157c0-6.386-3.254-9.947-9.087-9.947-5.895 0-9.087 3.561-9.087 9.947v12.157c0 6.386 3.193 10.008 9.087 10.008zm0-4.114c-3.009 0-4.482-1.842-4.482-5.464v-13.017c0-3.623 1.474-5.403 4.482-5.403 2.947 0 4.421 1.78 4.421 5.403v13.017c0 3.622-1.474 5.464-4.421 5.464zm26.095-27.998c-3.254 0-5.526 1.535-6.816 4.667l-.061-4.053h-3.991v30.885h4.604v-20.508c0-4.421 1.965-6.877 4.851-6.877 2.579 0 3.869 1.78 3.869 5.403v21.981h4.666v-22.596c0-5.956-2.395-8.903-7.122-8.903zm27.2 4.728c-1.29-3.131-3.561-4.728-6.877-4.728-4.789 0-7.184 2.948-7.184 8.903v12.894c0 5.956 2.395 8.964 7.184 8.964 2.763 0 4.912-1.228 6.324-3.684v5.649c0 3.377-1.474 5.035-4.482 5.035-2.886 0-4.359-1.29-4.359-3.868v-.43h-4.421v.245c0 5.158 3.009 7.921 8.842 7.921 6.385 0 9.026-3.132 9.026-9.21v-31.806h-3.991l-.061 4.114zm-5.465 21.92c-2.64 0-3.991-1.719-3.991-5.219v-12.157c0-3.438 1.351-5.158 3.991-5.158 2.886 0 4.912 2.456 4.912 6.877v8.78c0 4.421-2.026 6.877-4.912 6.877zm24.868-26.648c-5.956 0-9.149 3.561-9.149 9.947v12.157c0 6.386 3.254 10.008 9.149 10.008s9.148-3.622 9.148-10.008v-.491h-4.482v.921c0 3.622-1.535 5.464-4.605 5.464-3.008 0-4.543-1.842-4.543-5.464v-5.772h13.631v-6.816c0-6.386-3.254-9.947-9.148-9.947zm-4.482 9.517c0-3.623 1.474-5.403 4.482-5.403 3.07 0 4.605 1.78 4.605 5.403v3.438h-9.087v-3.438zm30.085-9.517c-3.254 0-5.403 1.904-6.447 5.711l-.061-5.096h-3.991v30.885h4.605v-17.991c0-5.956 2.026-8.903 6.017-8.903.737 0 1.351.123 1.904.307v-4.544c-.491-.246-1.167-.369-2.027-.369zm14.859 0c-5.956 0-9.148 3.561-9.148 9.947v12.157c0 6.386 3.254 10.008 9.148 10.008s9.149-3.622 9.149-10.008v-.491h-4.482v.921c0 3.622-1.535 5.464-4.605 5.464-3.009 0-4.544-1.842-4.544-5.464v-5.772h13.631v-6.816c0-6.386-3.254-9.947-9.149-9.947zm-4.482 9.517c0-3.623 1.474-5.403 4.482-5.403 3.07 0 4.605 1.78 4.605 5.403v3.438h-9.087v-3.438zm30.454-9.517c-3.254 0-5.525 1.535-6.815 4.667l-.062-4.053h-3.991v30.885h4.605v-20.508c0-4.421 1.965-6.877 4.851-6.877 2.578 0 3.868 1.78 3.868 5.403v21.981h4.667v-22.596c0-5.956-2.395-8.903-7.123-8.903zM74.807 165.817v-55.696h8.282c11.364 0 15.216 4.418 15.216 16.901v21.126c0 7.875.77 13.828 2.119 17.669h24.461c-1.734-4.225-2.697-9.987-2.697-17.477v-19.782c0-17.093-5.201-27.272-15.794-30.345v-.576c10.401-4.033 15.601-13.06 15.601-27.08v-6.722c0-22.087-11.172-32.457-35.632-32.457H50.73v134.438h24.076zm0-113.12h11.171c7.897 0 11.942 4.609 11.942 13.636v7.874c0 10.179-4.43 14.596-14.253 14.596h-8.86V52.697z"/><use xlink:href="#C"/><use xlink:href="#C" x="87.83"/><path d="M351.969 165.817c23.691 0 35.825-12.483 35.825-35.722V66.909c0-23.047-12.134-35.53-35.825-35.53h-36.788v134.438h36.788zm-12.712-113.12h12.327c8.282 0 12.134 3.841 12.134 13.636v64.531c0 9.795-3.852 13.636-12.134 13.636h-12.327V52.697z"/></g><path d="M50.591 18.383l-17.075-3.097L25.295 0l-8.221 15.286-17.075 3.097 11.993 12.545-2.331 17.2 15.633-7.533 15.633 7.533-2.331-17.2 11.993-12.545z"/></g><defs ><path id="B" d="M124.918 188.829v-6.632h-4.605v6.632h4.605zm0 35.305v-30.885h-4.605v30.885h4.605z"/><path id="C" d="M174.192 167.738c23.69 0 36.595-13.252 36.595-36.298V65.757c0-23.046-12.905-36.298-36.595-36.298-23.306 0-36.403 13.252-36.403 36.298v65.683c0 23.046 13.097 36.298 36.403 36.298zm0-21.318c-8.282 0-12.327-4.61-12.327-13.828V64.605c0-9.219 4.045-13.828 12.327-13.828s12.519 4.61 12.519 13.828v67.987c0 9.219-4.238 13.828-12.519 13.828z"/></defs></svg>