<svg xmlns="http://www.w3.org/2000/svg" width="202.927" height="84" viewBox="0 0 202.927 84">
  <g id="Group_35" data-name="Group 35" transform="translate(-833.38 -250)">
    <g id="Group_17" data-name="Group 17" transform="translate(877.87 243.58)">
      <path id="Path_3" data-name="Path 3" d="M80.357,58.061V69.375A5.642,5.642,0,0,0,83.5,68.73c.617-.4.925-1.689.924-3.949l0-2.788c0-1.657-.31-2.7-.9-3.2a5.011,5.011,0,0,0-3.177-.732m-13.3-8.776H76.5A75.631,75.631,0,0,1,89.242,50a8.834,8.834,0,0,1,5.426,3.713c1.4,2,2.071,5.165,2.071,9.494,0,4-.463,6.647-1.447,8.041-1.027,1.364-2.949,2.176-5.858,2.455,2.645.675,4.406,1.525,5.316,2.613a8.058,8.058,0,0,1,1.673,3.036,47.972,47.972,0,0,1,.316,7.544v13.487H84.429V83.423q0-4.137-.652-5.107c-.448-.645-1.563-.968-3.42-.968v23.04h-13.3Z" transform="translate(-42.938 -29.722)" fill="#e40613"/>
      <path id="Path_4" data-name="Path 4" d="M194.839,60.014a15.129,15.129,0,0,0-.41-4.578,1.479,1.479,0,0,0-1.57-.969,1.641,1.641,0,0,0-1.571.808c-.367.514-.542,2.1-.542,4.74v23.85a23.384,23.384,0,0,0,.352,5.49,1.558,1.558,0,0,0,1.673,1.056,1.619,1.619,0,0,0,1.7-1.188,27.053,27.053,0,0,0,.367-5.724Zm13.288,16.792a107.787,107.787,0,0,1-.367,10.889,11.882,11.882,0,0,1-2.246,5.855,12.477,12.477,0,0,1-5.15,4.081,18.708,18.708,0,0,1-7.565,1.408,19.3,19.3,0,0,1-7.366-1.321,12.3,12.3,0,0,1-5.253-4.049,11.567,11.567,0,0,1-2.34-5.782,99.918,99.918,0,0,1-.4-11.079v-8.75c0-5.137.124-8.776.366-10.89a12.027,12.027,0,0,1,2.261-5.868,12.16,12.16,0,0,1,5.165-4.051A18.462,18.462,0,0,1,192.8,45.8a18.806,18.806,0,0,1,7.34,1.364,12,12,0,0,1,5.251,4.022,12.141,12.141,0,0,1,2.37,5.84,108.577,108.577,0,0,1,.367,11.037Z" transform="translate(-119.475 -27.302)" fill="#e40613"/>
      <path id="Path_5" data-name="Path 5" d="M307.951,60.012a14.933,14.933,0,0,0-.426-4.578,1.5,1.5,0,0,0-1.571-.969,1.683,1.683,0,0,0-1.584.808c-.367.515-.55,2.1-.55,4.739V83.863a24.343,24.343,0,0,0,.352,5.488,1.568,1.568,0,0,0,1.666,1.057,1.621,1.621,0,0,0,1.717-1.189,25.235,25.235,0,0,0,.4-5.723ZM321.232,76.8a104.209,104.209,0,0,1-.381,10.888,12.257,12.257,0,0,1-7.4,9.935,18.643,18.643,0,0,1-7.558,1.409,19.188,19.188,0,0,1-7.373-1.32,12.395,12.395,0,0,1-7.617-9.833,110.617,110.617,0,0,1-.373-11.079v-8.75a107.708,107.708,0,0,1,.373-10.89,12.235,12.235,0,0,1,7.4-9.92,18.672,18.672,0,0,1,7.594-1.453,19.217,19.217,0,0,1,7.375,1.364,11.868,11.868,0,0,1,5.21,4.022,12.169,12.169,0,0,1,2.376,5.839c.235,2.07.382,5.768.382,11.037Z" transform="translate(-197.89 -27.3)" fill="#e40613"/>
      <path id="Path_6" data-name="Path 6" d="M418.036,58.061V91.641c1.938,0,3.1-.353,3.536-1.146s.659-2.861.66-6.236V64.4a27.983,27.983,0,0,0-.211-4.462,2.289,2.289,0,0,0-.99-1.452,7.317,7.317,0,0,0-2.994-.426m-13.282-8.775h9.951c6.383,0,10.74.323,13.015.91a10.2,10.2,0,0,1,5.187,2.862,9.442,9.442,0,0,1,2.2,4.549,65.9,65.9,0,0,1,.426,9.715V85.243a43.042,43.042,0,0,1-.632,9.186,6.865,6.865,0,0,1-2.269,3.611,9.161,9.161,0,0,1-3.986,1.849,37.191,37.191,0,0,1-7.13.5H404.755Z" transform="translate(-277.094 -29.722)" fill="#e40613"/>
      <path id="Path_7" data-name="Path 7" d="M65.5,237.642h2.218v1.884H65.5Zm-.7,11.5h.278c.364-.029.419-.4.418-.711v-8.136h2.22v8.011c0,1.423-.307,2.386-1.855,2.44H64.8Z" transform="translate(-41.374 -160.326)" fill="#e40613"/>
      <path id="Path_8" data-name="Path 8" d="M80.123,251.561c.042.447.224.685.683.685s.642-.238.684-.685v-3.488c0-.5-.168-.906-.684-.906s-.684.4-.684.906Zm-2.22-3.319c0-2.011,1.187-2.68,2.9-2.68,1.953,0,2.9.921,2.9,2.68v3.181c-.111,1.774-1.213,2.428-2.9,2.428-1.591,0-2.9-.642-2.9-2.428v-3.181Z" transform="translate(-50.46 -165.818)" fill="#e40613"/>
      <path id="Path_9" data-name="Path 9" d="M102.654,245.787v.978h.027a1.8,1.8,0,0,1,1.551-1.2c1.046,0,1.981.571,1.981,1.632V253.6h-2.219v-5.584c-.027-.361-.167-.668-.586-.64a.568.568,0,0,0-.6.641V253.6h-2.22v-7.815Z" transform="translate(-66.189 -165.819)" fill="#e40613"/>
      <path id="Path_10" data-name="Path 10" d="M125.03,250.754c0,.432.14.839.656.838.6,0,.671-.546.67-1.021v-2.163c0-.531-.125-1.033-.726-1.032-.572,0-.614.752-.6,1.157v2.221Zm-.056,3.279c0,.544.084.781.725.738.462-.04.657-.139.67-.641v-1.576h-.027a2.125,2.125,0,0,1-1.577.851c-1.4,0-1.953-1.256-1.954-2.457v-2.706c0-1.227.447-2.679,1.912-2.679a1.918,1.918,0,0,1,1.757,1.173h.029v-.95h2.065v7.969c0,1.828-1.312,2.483-2.972,2.484s-2.791-.4-2.847-2.206Z" transform="translate(-81.56 -165.818)" fill="#e40613"/>
      <path id="Path_11" data-name="Path 11" d="M156.412,240.294h2.219v7.815h-2.22Zm0-2.652h2.218v1.884h-2.218Z" transform="translate(-104.897 -160.326)" fill="#e40613"/>
      <path id="Path_12" data-name="Path 12" d="M169.614,245.785v.977h.026a1.8,1.8,0,0,1,1.55-1.2c1.046,0,1.982.572,1.982,1.633V253.6h-2.218v-5.584c-.026-.362-.168-.668-.586-.641a.569.569,0,0,0-.6.641V253.6h-2.22v-7.816Z" transform="translate(-112.618 -165.818)" fill="#e40613"/>
      <path id="Path_13" data-name="Path 13" d="M203.228,245.289c0,.461,0,1.256.642,1.256.6,0,.683-.6.683-1.352V243.35c0-.67-.1-1.48-.644-1.466-.71,0-.682.879-.683,1.381Zm1.479,2.82V247.2h-.029a2.014,2.014,0,0,1-1.729,1.157c-1.62-.054-1.941-1.575-1.941-2.9v-2.706c0-1.227.433-2.68,1.9-2.679a1.888,1.888,0,0,1,1.618.935h.029v-3.364h2.218v10.467Z" transform="translate(-135.818 -160.326)" fill="#e40613"/>
      <path id="Path_14" data-name="Path 14" d="M227.382,248.591v-.767a.764.764,0,0,0-.752-.8c-.63,0-.785.5-.784,1.046v.518Zm-1.535,1.466v1.367a.722.722,0,0,0,.686.823c.823.043.74-.7.78-1.352h2.2c.113,2.009-.977,2.93-2.9,2.958-1.594.013-2.989-.643-2.989-2.429v-3.181c0-2.01,1.27-2.665,2.988-2.68,1.548-.013,2.985.572,2.985,2.262v2.232h-3.753Z" transform="translate(-151.504 -165.818)" fill="#e40613"/>
      <path id="Path_15" data-name="Path 15" d="M259.328,244.039v.739c0,.6.2,1.132.977,1.133.572,0,.823-.518.823-1.05,0-.877-.725-1.211-1.366-1.6a7.038,7.038,0,0,1-1.857-1.367,3.047,3.047,0,0,1-.711-2.092,2.749,2.749,0,0,1,3.083-2.974,2.926,2.926,0,0,1,3.113,3.392h-2.263c-.026-.614,0-1.451-.81-1.509a.728.728,0,0,0-.849.7c-.071.628.249.95.739,1.284a17.227,17.227,0,0,1,2.288,1.479,3.075,3.075,0,0,1,.907,2.5,2.833,2.833,0,0,1-3.153,3.126c-2.248,0-3.2-1.256-3.2-2.636v-1.118Z" transform="translate(-174.681 -159.76)" fill="#e40613"/>
      <path id="Path_16" data-name="Path 16" d="M283.951,242.15a2.254,2.254,0,0,0,1.38-.265,1.569,1.569,0,0,0,.308-1.061c0-.4-.041-1.018-.459-1.214a3.214,3.214,0,0,0-.964-.083h-.265v2.623Zm-2.454,5.958V237.642h2.916c.949,0,2.315.083,3,.866a3.206,3.206,0,0,1,.684,2.275,2.961,2.961,0,0,1-1.383,2.915,6.79,6.79,0,0,1-2.762.336v4.075Z" transform="translate(-191.628 -160.326)" fill="#e40613"/>
      <path id="Path_17" data-name="Path 17" d="M5.159,13.766a.575.575,0,0,0,.208.643l5.214,3.8a.568.568,0,0,1,.208.642l-.977,3.1L8.829,25.03a.573.573,0,0,0,.212.643.567.567,0,0,0,.672-.006l5.212-3.819a.566.566,0,0,1,.662.009l5.233,3.788a.57.57,0,0,0,.671,0A.58.58,0,0,0,21.7,25l-1.981-6.148a.574.574,0,0,1,.209-.642L25.152,14.4a.575.575,0,0,0-.334-1.04l-6.459,0a.58.58,0,0,1-.548-.4l-2-6.144a.576.576,0,0,0-1.095,0l-2.013,6.144a.571.571,0,0,1-.542.4l-6.458.013a.576.576,0,0,0-.548.395" fill="#e40613"/>
    </g>
    <path id="Path_22" data-name="Path 22" d="M1.38,0H6.72V-18.63h.06L9.87,0h3.6l3.09-18.63h.06V0h5.34V-23.97h-8.7L11.7-12.09h-.06L10.08-23.97H1.38ZM24.75,0h5.52V-23.97H24.75Zm20.7-23.97H39.93V-5.43c0,1.2-.57,1.56-1.14,1.56-.99,0-1.05-.78-1.05-1.53V-9.48H32.4v3.51C32.4-.51,36.03.39,38.79.39c4.41,0,6.66-1.95,6.66-6.36ZM47.91,0h5.34V-14.82h.06L57.78,0h6V-23.97H58.44V-9.84h-.06L53.94-23.97H47.91Z" transform="translate(832 314.25)"/>
  </g>
</svg>
