<?xml version="1.0" encoding="UTF-8"?>
<!-- Generator: Adobe Illustrator 14.0.0, SVG Export Plug-In . SVG Version: 6.00 Build 43363)  -->
<!DOCTYPE svg PUBLIC "-//W3C//DTD SVG 1.1//EN" "http://www.w3.org/Graphics/SVG/1.1/DTD/svg11.dtd">
<svg version="1.1" id="Layer_1" xmlns="http://www.w3.org/2000/svg" xmlns:xlink="http://www.w3.org/1999/xlink" x="0px" y="0px" width="538px" height="284px" viewBox="0 0 538 284" enable-background="new 0 0 538 284" xml:space="preserve">
<path fill="#E2001A" d="M110.44,77.909l-0.002,36.898c4.905,0.002,8.354-0.719,10.266-2.104c2.011-1.294,3.018-5.507,3.015-12.879  l0.005-9.092c-0.002-5.404-1.012-8.805-2.921-10.435C118.984,78.722,115.564,77.909,110.44,77.909 M67.055,49.288l30.799-0.003  c20.461,0,34.198,0.865,41.564,2.347c7.242,1.629,13.084,5.596,17.698,12.111c4.573,6.507,6.753,16.845,6.753,30.965  c-0.002,13.061-1.51,21.679-4.719,26.225c-3.348,4.45-9.617,7.096-19.107,8.007c8.627,2.202,14.369,4.975,17.338,8.521  c2.871,3.639,4.759,6.843,5.457,9.902c0.716,2.874,1.03,11.108,1.03,24.603v43.987h-40.148v-55.33  c0-8.994-0.717-14.549-2.128-16.655c-1.462-2.104-5.097-3.156-11.153-3.156v75.142l-43.381-0.003L67.055,49.288z"/>
<path fill="#E2001A" d="M234.192,92.168c0.002-7.801-0.429-12.775-1.337-14.93c-0.789-2.155-2.49-3.161-5.119-3.161  c-2.298,0.002-3.923,0.673-5.124,2.634c-1.196,1.675-1.769,6.844-1.766,15.459l-0.002,77.785c0,9.718,0.357,15.75,1.148,17.904  c0.762,2.296,2.583,3.443,5.457,3.443c2.917-0.002,4.719-1.34,5.55-3.875c0.764-2.682,1.193-8.81,1.196-18.669L234.192,92.168z   M277.53,146.935c0,16.751-0.383,28.672-1.196,35.514c-0.669,6.985-3.209,13.353-7.324,19.095  c-4.187,5.792-9.761,10.146-16.797,13.311c-7.075,3.105-15.309,4.589-24.672,4.591c-8.853,0.003-16.895-1.39-24.024-4.309  c-7.058-2.916-12.773-7.369-17.132-13.207c-4.307-5.696-6.938-12.157-7.633-18.857c-0.911-6.986-1.316-19.048-1.313-36.135  l-0.002-28.539c0-16.754,0.403-28.624,1.193-35.516c0.719-6.986,3.235-13.396,7.374-19.139c4.213-5.749,9.763-10.199,16.845-13.212  c7.082-3.156,15.34-4.74,24.691-4.737c8.903,0,16.854,1.48,23.938,4.447c7.055,2.876,12.845,7.278,17.125,13.116  c4.335,5.838,6.871,12.155,7.729,19.047c0.815,6.751,1.201,18.813,1.198,35.995V146.935z"/>
<path fill="#E2001A" d="M347.356,92.17c0-7.803-0.477-12.78-1.388-14.932c-0.815-2.155-2.538-3.159-5.124-3.161  c-2.274,0.005-3.921,0.673-5.167,2.634c-1.196,1.678-1.795,6.847-1.795,15.457v77.789c0.002,9.718,0.407,15.748,1.148,17.899  c0.769,2.296,2.634,3.446,5.433,3.446c2.921,0,4.834-1.34,5.601-3.877c0.815-2.68,1.292-8.808,1.294-18.664L347.356,92.17z   M390.672,146.937c0,16.749-0.405,28.672-1.244,35.512c-0.815,6.988-3.278,13.353-7.396,19.095  c-4.088,5.792-9.715,10.146-16.751,13.308c-7.063,3.11-15.294,4.592-24.65,4.594c-8.924,0-17.015-1.39-24.046-4.306  c-7.127-2.919-12.73-7.372-17.13-13.212c-4.312-5.694-6.799-12.155-7.712-18.858c-0.813-6.985-1.22-19.045-1.217-36.132v-28.537  c0-16.756,0.407-28.626,1.217-35.516c0.817-6.988,3.209-13.401,7.441-19.143c4.069-5.742,9.744-10.197,16.68-13.212  c7.156-3.154,15.412-4.738,24.768-4.738c8.829,0.003,16.847,1.483,24.053,4.45c7.036,2.874,12.732,7.276,16.991,13.119  c4.33,5.837,6.89,12.152,7.75,19.044c0.767,6.751,1.246,18.813,1.246,35.995V146.937z"/>
<path fill="#E2001A" d="M448.072,77.906v109.521c6.319-0.002,10.099-1.15,11.534-3.738c1.457-2.581,2.149-9.33,2.152-20.337  l-0.003-64.77c0.003-7.565-0.234-12.444-0.689-14.551c-0.501-2.106-1.605-3.687-3.229-4.735  C456.041,78.386,452.811,77.909,448.072,77.906 M404.754,49.288l32.455-0.003c20.818,0,35.029,1.053,42.449,2.967  c7.371,1.913,12.993,4.978,16.916,9.335c3.832,4.45,6.195,9.43,7.166,14.836c1.009,5.313,1.39,15.892,1.39,31.684v58.453  c0.003,14.933-0.717,24.885-2.061,29.958c-1.465,5.025-3.837,8.953-7.4,11.776c-3.522,2.919-7.779,4.884-12.999,6.032  c-5.073,1.098-12.967,1.624-23.255,1.627l-54.659-0.003L404.754,49.288z"/>
<path fill="#E2001A" d="M67.076,237.642l7.235,0.002v6.145h-7.235V237.642z M64.802,275.146h0.908  c1.187-0.093,1.366-1.317,1.364-2.319v-26.534l7.24-0.002v26.129c-0.002,4.64-1.002,7.781-6.049,7.959l-3.465,0.002L64.802,275.146z  "/>
<path fill="#E2001A" d="M85.143,265.129c0.137,1.459,0.729,2.233,2.229,2.233c1.5-0.003,2.095-0.776,2.231-2.233v-11.376  c0-1.635-0.549-2.955-2.231-2.955c-1.687,0-2.231,1.32-2.231,2.955L85.143,265.129z M77.903,254.304  c-0.002-6.559,3.87-8.742,9.471-8.742c6.37,0.002,9.461,3.005,9.464,8.74l-0.002,10.376c-0.362,5.785-3.957,7.918-9.464,7.918  c-5.19,0-9.471-2.094-9.468-7.918V254.304z"/>
<path fill="#E2001A" d="M107.327,246.29v3.188h0.089c0.683-1.958,2.782-3.914,5.057-3.914c3.41-0.002,6.46,1.862,6.46,5.323  l-0.002,20.893l-7.238,0.002v-18.213c-0.088-1.177-0.544-2.179-1.912-2.088c-1.275,0.048-1.953,0.77-1.953,2.09l0.002,18.209  l-7.242,0.002v-25.489L107.327,246.29z"/>
<path fill="#E2001A" d="M130.173,262.495c0,1.409,0.458,2.736,2.14,2.734c1.956,0,2.188-1.78,2.186-3.329v-7.053  c0-1.732-0.408-3.369-2.368-3.367c-1.865-0.002-2.001,2.454-1.958,3.772V262.495z M129.991,273.188c0,1.775,0.275,2.547,2.365,2.408  c1.507-0.132,2.143-0.453,2.186-2.09v-5.141h-0.088c-1.457,1.685-3.192,2.777-5.143,2.775c-4.553,0-6.37-4.096-6.372-8.014v-8.826  c-0.002-4.002,1.457-8.738,6.235-8.738c2.504,0.092,4.503,1.275,5.73,3.825h0.094L135,246.29h6.736l-0.002,25.99  c0,5.962-4.28,8.098-9.694,8.1c-5.461,0-9.102-1.318-9.284-7.194L129.991,273.188z"/>
<path fill="#E2001A" d="M156.412,246.292l7.238-0.002l0.002,25.489h-7.24V246.292z M156.414,237.642l7.235,0.002v6.145h-7.235  V237.642z"/>
<path fill="#E2001A" d="M174.287,246.29l0.002,3.188h0.086c0.688-1.956,2.777-3.916,5.054-3.916c3.41,0.002,6.463,1.864,6.463,5.325  l-0.002,20.893l-7.235,0.002V253.57c-0.086-1.182-0.549-2.178-1.912-2.092c-1.272,0.05-1.956,0.774-1.953,2.092l-0.002,18.211h-7.24  V246.29H174.287z"/>
<path fill="#E2001A" d="M208.25,262.584c0,1.505-0.002,4.098,2.095,4.096c1.951,0.002,2.229-1.956,2.229-4.41v-6.01  c0-2.184-0.324-4.827-2.099-4.781c-2.317,0.002-2.224,2.868-2.227,4.505L208.25,262.584z M213.074,271.781l-0.002-2.96h-0.094  c-1.315,2.459-3.501,3.777-5.639,3.774c-5.282-0.175-6.332-5.138-6.332-9.468l0.002-8.826c-0.002-4.002,1.412-8.74,6.192-8.738  c1.908-0.002,3.774,0.82,5.277,3.049h0.096l-0.002-10.971h7.235v34.138L213.074,271.781z"/>
<path fill="#E2001A" d="M235.872,255.439v-2.502c0-0.913-0.589-2.595-2.452-2.595c-2.054,0-2.559,1.634-2.557,3.41v1.689  L235.872,255.439z M230.866,260.219l-0.002,4.459c0,1.412,0.642,2.594,2.236,2.685c2.684,0.139,2.413-2.274,2.545-4.409h7.189  c0.367,6.552-3.185,9.555-9.457,9.646c-5.2,0.043-9.747-2.097-9.749-7.923l0.002-10.374c0-6.555,4.141-8.692,9.744-8.74  c5.049-0.043,9.734,1.867,9.734,7.376l-0.002,7.281H230.866z"/>
<path fill="#E2001A" d="M264.469,260.353v2.411c-0.002,1.963,0.643,3.692,3.188,3.695c1.867,0,2.684-1.688,2.684-3.423  c-0.002-2.861-2.365-3.951-4.455-5.231c-2.457-1.409-4.553-2.729-6.056-4.459c-1.459-1.726-2.32-3.818-2.32-6.823  c0-6.423,3.866-9.696,10.056-9.698c6.962,0,10.516,4.642,10.154,11.062h-7.381c-0.086-2.001,0.002-4.732-2.641-4.92  c-1.629-0.132-2.585,0.779-2.768,2.279c-0.23,2.047,0.812,3.097,2.411,4.187c3,1.91,5.596,3.092,7.463,4.824  c1.867,1.73,2.957,4.007,2.959,8.146c-0.002,6.552-3.638,10.194-10.283,10.194c-7.333,0-10.425-4.095-10.425-8.598v-3.646H264.469z"/>
<path fill="#E2001A" d="M289.502,252.346c1.5-0.05,3.23,0.135,4.5-0.865c0.827-0.91,1.007-2.276,1.004-3.46  c0-1.313-0.134-3.321-1.496-3.959c-0.779-0.273-1.869-0.271-3.144-0.271h-0.865V252.346z M281.498,271.779l-0.002-34.136  l9.509-0.002c3.094,0.002,7.551,0.272,9.785,2.825c1.867,2.097,2.231,4.642,2.231,7.419c0,3.687-0.863,7.83-4.51,9.507  c-2.775,1.369-6.003,0.961-9.008,1.096l0.002,13.291H281.498z"/>
<path fill="#E2001A" d="M5.223,30.38C4.969,31.161,5.25,32,5.901,32.477l17.005,12.406c0.666,0.484,0.935,1.325,0.678,2.093  l-3.188,10.104l-3.202,10.036c-0.254,0.778,0.029,1.615,0.69,2.097c0.647,0.475,1.534,0.465,2.193-0.021l16.999-12.457  c0.659-0.45,1.529-0.45,2.159,0.029l17.067,12.354c0.643,0.475,1.532,0.475,2.188,0c0.659-0.484,0.933-1.33,0.688-2.097  l-6.461-20.052c-0.249-0.781,0.024-1.617,0.681-2.095l17.032-12.421c0.659-0.481,0.93-1.317,0.683-2.097  c-0.252-0.77-0.968-1.292-1.773-1.296l-21.065-0.015c-0.817-0.01-1.541-0.529-1.786-1.292L39.979,7.714  c-0.251-0.774-0.966-1.292-1.785-1.294c-0.817-0.003-1.529,0.529-1.786,1.296l-6.566,20.037c-0.239,0.77-0.97,1.302-1.769,1.299  L7.011,29.093C6.193,29.093,5.479,29.612,5.223,30.38"/>
</svg>